<svg width="600" height="520" viewBox="0 0 600 520" fill="none" xmlns="http://www.w3.org/2000/svg">
  <defs>
    <linearGradient id="radarGrad" x1="120" y1="80" x2="500" y2="440" gradientUnits="userSpaceOnUse">
      <stop stop-color="#A855F7"/>
      <stop offset="1" stop-color="#22D3EE"/>
    </linearGradient>
  </defs>
  <rect width="600" height="520" rx="24" fill="#0F172A"/>
  <g>
    <line x1="300" y1="250" x2="300" y2="60" stroke="#475569"/>
    <line x1="300" y1="250" x2="500" y2="250" stroke="#475569"/>
    <line x1="300" y1="250" x2="100" y2="250" stroke="#475569"/>
    <line x1="300" y1="250" x2="435" y2="143" stroke="#475569"/>
    <line x1="300" y1="250" x2="435" y2="357" stroke="#475569"/>
    <line x1="300" y1="250" x2="165" y2="357" stroke="#475569"/>
    <line x1="300" y1="250" x2="165" y2="143" stroke="#475569"/>
  </g>

  <polygon points="300.0,212.0 336.1,238.3 322.3,280.7 277.7,280.7 263.9,238.3" fill="none" stroke="#374151" stroke-width="1"/> <polygon points="300.0,174.0 372.3,226.5 344.7,311.5 255.3,311.5 227.7,226.5" fill="none" stroke="#374151" stroke-width="1"/> <polygon points="300.0,136.0 408.4,214.8 367.0,342.2 233.0,342.2 191.6,214.8" fill="none" stroke="#374151" stroke-width="1"/> <polygon points="300.0,98.0 444.6,203.0 389.3,373.0 210.7,373.0 155.4,203.0" fill="none" stroke="#374151" stroke-width="1"/> <polygon points="300.0,60.0 480.7,191.3 411.7,403.7 188.3,403.7 119.3,191.3" fill="none" stroke="#374151" stroke-width="1"/>
  <polygon points="300.0,79.0 453.6,200.1 384.9,366.8 197.3,391.4 151.8,201.9" fill="url(#radarGrad)" fill-opacity="0.25" stroke="url(#radarGrad)" stroke-width="3"/>
  <text x="300.0" y="28.0" text-anchor="middle" fill="#E2E8F0" font-family="Arial, sans-serif" font-size="17" font-weight="700">AI/ML</text> <text x="511.1" y="181.4" text-anchor="middle" fill="#E2E8F0" font-family="Arial, sans-serif" font-size="17" font-weight="700">Systems</text> <text x="430.5" y="429.6" text-anchor="middle" fill="#E2E8F0" font-family="Arial, sans-serif" font-size="17" font-weight="700">Web Dev</text> <text x="169.5" y="429.6" text-anchor="middle" fill="#E2E8F0" font-family="Arial, sans-serif" font-size="17" font-weight="700">Algorithms</text> <text x="88.9" y="181.4" text-anchor="middle" fill="#E2E8F0" font-family="Arial, sans-serif" font-size="17" font-weight="700">Databases</text>
</svg>